<svg width="24" height="24" viewBox="0 0 24 24" fill="none" xmlns="http://www.w3.org/2000/svg">
<path d="M16.5938 14.6953L19.5 24L12 18.2344L4.5 24L7.40625 14.6953L0 9H9.1875L12 0L14.8125 9H24L16.5938 14.6953ZM16.6523 19.9219C16.3555 18.9531 16.0586 17.9922 15.7617 17.0391C15.4648 16.0859 15.1602 15.1211 14.8477 14.1445C15.6523 13.543 16.4453 12.9375 17.2266 12.3281C18.0078 11.7188 18.7969 11.1094 19.5938 10.5H13.7109L12 5.02734L10.2891 10.5H4.40625C5.20312 11.1094 5.99219 11.7188 6.77344 12.3281C7.55469 12.9375 8.34766 13.543 9.15234 14.1445C8.83984 15.1133 8.53516 16.0742 8.23828 17.0273C7.94141 17.9805 7.64453 18.9453 7.34766 19.9219L12 16.3359L16.6523 19.9219Z" fill="black"/>
</svg>
