<svg width="474" height="474" viewBox="0 0 474 474" fill="none" xmlns="http://www.w3.org/2000/svg">
<g clip-path="url(#clip0)">
<path d="M460.432 236.966C460.432 360.383 360.383 460.432 236.966 460.432C113.549 460.432 13.5 360.383 13.5 236.966C13.5 113.549 113.549 13.5 236.966 13.5C360.383 13.5 460.432 113.549 460.432 236.966Z" stroke="#9FA8DA" stroke-width="27"/>
<path d="M164.937 192.443C185.491 192.443 202.153 175.781 202.153 155.227C202.153 134.673 185.491 118.011 164.937 118.011C144.383 118.011 127.721 134.673 127.721 155.227C127.721 175.781 144.383 192.443 164.937 192.443Z" fill="#9FA8DA"/>
<path d="M305.664 192.443C326.218 192.443 342.88 175.781 342.88 155.227C342.88 134.673 326.218 118.011 305.664 118.011C285.11 118.011 268.448 134.673 268.448 155.227C268.448 175.781 285.11 192.443 305.664 192.443Z" fill="#9FA8DA"/>
<path d="M121.5 308C167.956 400.911 300.544 400.911 347 308" stroke="#9FA8DA" stroke-width="35"/>
</g>
<defs>
<clipPath id="clip0">
<rect width="473.931" height="473.931" fill="white"/>
</clipPath>
</defs>
</svg>
